<svg xmlns="http://www.w3.org/2000/svg" viewBox="0 0 400 600">
  <!-- Background -->
  <rect width="400" height="600" fill="linear-gradient(135deg, #1e3a5c 0%, #2c5282 100%)"/>
  
  <!-- Mobile Phone -->
  <rect x="150" y="100" width="100" height="180" fill="#1a202c" rx="15" stroke="#4fd1c7" stroke-width="2"/>
  <rect x="155" y="110" width="90" height="150" fill="#2d3748" rx="10"/>
  <rect x="160" y="120" width="80" height="130" fill="#f7fafc" rx="5"/>
  
  <!-- Screen Content - Dashboard -->
  <rect x="165" y="125" width="70" height="8" fill="#4299e1" rx="2"/>
  <text x="200" y="137" font-family="Arial" font-size="6" fill="#2d3748" text-anchor="middle">ููุธู - ููุญุฉ ุงูุชุญูู</text>
  
  <!-- Stats Cards -->
  <rect x="170" y="145" width="25" height="20" fill="#48bb78" opacity="0.2" rx="3"/>
  <text x="182.5" y="153" font-family="Arial" font-size="6" fill="#48bb78" text-anchor="middle">245</text>
  <text x="182.5" y="160" font-family="Arial" font-size="4" fill="#4a5568" text-anchor="middle">ููุธู</text>
  
  <rect x="200" y="145" width="25" height="20" fill="#4299e1" opacity="0.2" rx="3"/>
  <text x="212.5" y="153" font-family="Arial" font-size="6" fill="#4299e1" text-anchor="middle">38</text>
  <text x="212.5" y="160" font-family="Arial" font-size="4" fill="#4a5568" text-anchor="middle">ูุฑูุจุฉ</text>
  
  <!-- Menu Items -->
  <rect x="170" y="175" width="60" height="6" fill="#e2e8f0" rx="2"/>
  <rect x="170" y="185" width="60" height="6" fill="#e2e8f0" rx="2"/>
  <rect x="170" y="195" width="60" height="6" fill="#e2e8f0" rx="2"/>
  <rect x="170" y="205" width="60" height="6" fill="#e2e8f0" rx="2"/>
  
  <!-- Icons -->
  <circle cx="173" cy="178" r="2" fill="#4299e1"/>
  <circle cx="173" cy="188" r="2" fill="#48bb78"/>
  <circle cx="173" cy="198" r="2" fill="#ed8936"/>
  <circle cx="173" cy="208" r="2" fill="#f093fb"/>
  
  <!-- Notification Badge -->
  <circle cx="245" cy="115" r="5" fill="#f56565"/>
  <text x="245" y="118" font-family="Arial" font-size="6" fill="white" text-anchor="middle">3</text>
  
  <!-- Saudi Context Elements -->
  <g transform="translate(50, 150)">
    <rect width="60" height="100" fill="rgba(255,255,255,0.1)" rx="10"/>
    <text x="30" y="20" font-family="Arial" font-size="8" fill="#4fd1c7" text-anchor="middle">ุงูุดุฑูุงุช ุงูุณุนูุฏูุฉ</text>
    <text x="30" y="35" font-family="Arial" font-size="12" fill="white" text-anchor="middle" font-weight="bold">+500</text>
    <text x="30" y="50" font-family="Arial" font-size="6" fill="rgba(255,255,255,0.8)" text-anchor="middle">ุดุฑูุฉ ุชุณุชุฎุฏู ุงููุธุงู</text>
    
    <text x="30" y="70" font-family="Arial" font-size="6" fill="#4fd1c7" text-anchor="middle">ูุนุฏู ุงูุฑุถุง</text>
    <text x="30" y="85" font-family="Arial" font-size="12" fill="white" text-anchor="middle" font-weight="bold">98%</text>
  </g>
  
  <g transform="translate(290, 150)">
    <rect width="60" height="100" fill="rgba(255,255,255,0.1)" rx="10"/>
    <text x="30" y="20" font-family="Arial" font-size="8" fill="#4fd1c7" text-anchor="middle">ุงูุฏุนู ุงูููู</text>
    <text x="30" y="35" font-family="Arial" font-size="12" fill="white" text-anchor="middle" font-weight="bold">24/7</text>
    <text x="30" y="50" font-family="Arial" font-size="6" fill="rgba(255,255,255,0.8)" text-anchor="middle">ูุชุงุญ ุฏุงุฆูุงู</text>
    
    <text x="30" y="70" font-family="Arial" font-size="6" fill="#4fd1c7" text-anchor="middle">ุณููุงุช ุงูุฎุจุฑุฉ</text>
    <text x="30" y="85" font-family="Arial" font-size="12" fill="white" text-anchor="middle" font-weight="bold">5+</text>
  </g>
  
  <!-- Features Icons -->
  <g transform="translate(100, 350)">
    <circle r="25" fill="rgba(77,209,199,0.2)"/>
    <text x="0" y="5" font-family="Arial" font-size="16" fill="#4fd1c7" text-anchor="middle">๐ฅ</text>
  </g>
  <text x="100" y="395" font-family="Arial" font-size="8" fill="white" text-anchor="middle">ุฅุฏุงุฑุฉ ุงูููุธููู</text>
  
  <g transform="translate(200, 350)">
    <circle r="25" fill="rgba(72,187,120,0.2)"/>
    <text x="0" y="5" font-family="Arial" font-size="16" fill="#48bb78" text-anchor="middle">๐</text>
  </g>
  <text x="200" y="395" font-family="Arial" font-size="8" fill="white" text-anchor="middle">ุฅุฏุงุฑุฉ ุงููุฑูุจุงุช</text>
  
  <g transform="translate(300, 350)">
    <circle r="25" fill="rgba(66,153,225,0.2)"/>
    <text x="0" y="5" font-family="Arial" font-size="16" fill="#4299e1" text-anchor="middle">โฐ</text>
  </g>
  <text x="300" y="395" font-family="Arial" font-size="8" fill="white" text-anchor="middle">ูุธุงู ุงูุญุถูุฑ</text>
  
  <!-- Connecting Lines -->
  <path d="M125 350 Q162.5 320 175 275" stroke="#4fd1c7" stroke-width="2" fill="none" opacity="0.6" stroke-dasharray="4,4">
    <animate attributeName="stroke-dashoffset" values="8;0" dur="2s" repeatCount="indefinite"/>
  </path>
  
  <path d="M200 325 Q200 300 200 275" stroke="#48bb78" stroke-width="2" fill="none" opacity="0.6" stroke-dasharray="4,4">
    <animate attributeName="stroke-dashoffset" values="8;0" dur="2.5s" repeatCount="indefinite"/>
  </path>
  
  <path d="M275 350 Q237.5 320 225 275" stroke="#4299e1" stroke-width="2" fill="none" opacity="0.6" stroke-dasharray="4,4">
    <animate attributeName="stroke-dashoffset" values="8;0" dur="3s" repeatCount="indefinite"/>
  </path>
  
  <!-- Saudi Flag -->
  <g transform="translate(180, 450)">
    <rect width="40" height="25" fill="#006C35"/>
    <rect width="40" height="12.5" fill="white"/>
    <text x="20" y="16" font-family="Arial" font-size="12" fill="white" text-anchor="middle">๐ก๏ธ</text>
  </g>
  <text x="200" y="490" font-family="Arial" font-size="10" fill="white" text-anchor="middle" font-weight="bold">ุตููุน ุจูุฎุฑ ูู ุงูุณุนูุฏูุฉ</text>
  
  <!-- Floating Elements -->
  <g opacity="0.3">
    <circle cx="50" cy="80" r="3" fill="#4fd1c7">
      <animate attributeName="cy" values="80;60;80" dur="4s" repeatCount="indefinite"/>
      <animate attributeName="opacity" values="0.3;0.8;0.3" dur="4s" repeatCount="indefinite"/>
    </circle>
    <circle cx="350" cy="300" r="4" fill="#48bb78">
      <animate attributeName="cy" values="300;280;300" dur="3s" repeatCount="indefinite"/>
      <animate attributeName="opacity" values="0.3;0.8;0.3" dur="3s" repeatCount="indefinite"/>
    </circle>
    <circle cx="80" cy="500" r="2" fill="#4299e1">
      <animate attributeName="cy" values="500;480;500" dur="5s" repeatCount="indefinite"/>
      <animate attributeName="opacity" values="0.3;0.8;0.3" dur="5s" repeatCount="indefinite"/>
    </circle>
  </g>
</svg>