<svg xmlns="http://www.w3.org/2000/svg" viewBox="0 0 600 400">
  <!-- Background -->
  <rect width="600" height="400" fill="linear-gradient(135deg, #f0f9ff 0%, #e0f2fe 100%)"/>
  
  <!-- Main analytics dashboard -->
  <g transform="translate(50, 50)">
    <!-- Dashboard container -->
    <rect x="0" y="0" width="500" height="300" fill="white" rx="15" stroke="#cbd5e1" stroke-width="2"/>
    
    <!-- Header -->
    <rect x="0" y="0" width="500" height="50" fill="#0f172a" rx="15"/>
    <rect x="0" y="25" width="500" height="25" fill="#0f172a"/>
    <text x="250" y="32" font-family="Arial" font-size="16" fill="white" text-anchor="middle" font-weight="bold">ููุญุฉ ุงูุชุญูููุงุช ูุงูุชูุงุฑูุฑ</text>
    
    <!-- Chart area -->
    <g transform="translate(30, 80)">
      <!-- Bar chart -->
      <g>
        <!-- Chart bars -->
        <rect x="20" y="120" width="25" height="60" fill="#3b82f6" rx="2"/>
        <rect x="55" y="100" width="25" height="80" fill="#10b981" rx="2"/>
        <rect x="90" y="140" width="25" height="40" fill="#f59e0b" rx="2"/>
        <rect x="125" y="90" width="25" height="90" fill="#ef4444" rx="2"/>
        <rect x="160" y="110" width="25" height="70" fill="#8b5cf6" rx="2"/>
        <rect x="195" y="130" width="25" height="50" fill="#06b6d4" rx="2"/>
        
        <!-- Chart labels -->
        <text x="32" y="200" font-family="Arial" font-size="8" text-anchor="middle" fill="#6b7280">ููุงูุฑ</text>
        <text x="67" y="200" font-family="Arial" font-size="8" text-anchor="middle" fill="#6b7280">ูุจุฑุงูุฑ</text>
        <text x="102" y="200" font-family="Arial" font-size="8" text-anchor="middle" fill="#6b7280">ูุงุฑุณ</text>
        <text x="137" y="200" font-family="Arial" font-size="8" text-anchor="middle" fill="#6b7280">ุฃุจุฑูู</text>
        <text x="172" y="200" font-family="Arial" font-size="8" text-anchor="middle" fill="#6b7280">ูุงูู</text>
        <text x="207" y="200" font-family="Arial" font-size="8" text-anchor="middle" fill="#6b7280">ููููู</text>
        
        <!-- Y-axis -->
        <line x1="15" y1="80" x2="15" y2="185" stroke="#d1d5db" stroke-width="1"/>
        <text x="10" y="85" font-family="Arial" font-size="8" fill="#6b7280">100</text>
        <text x="10" y="125" font-family="Arial" font-size="8" fill="#6b7280">50</text>
        <text x="10" y="185" font-family="Arial" font-size="8" fill="#6b7280">0</text>
        
        <!-- Chart title -->
        <text x="120" y="70" font-family="Arial" font-size="12" text-anchor="middle" fill="#1f2937" font-weight="bold">ุฃุฏุงุก ุงูููุธููู ุงูุดูุฑู</text>
      </g>
    </g>
    
    <!-- Pie chart -->
    <g transform="translate(280, 80)">
      <!-- Pie chart segments -->
      <g>
        <!-- Attendance (70%) -->
        <path d="M 80 80 L 80 20 A 60 60 0 1 1 134 124 Z" fill="#22c55e"/>
        <!-- Break (15%) -->
        <path d="M 80 80 L 134 124 A 60 60 0 0 1 125 138 Z" fill="#f59e0b"/>
        <!-- Absent (10%) -->
        <path d="M 80 80 L 125 138 A 60 60 0 0 1 75 140 Z" fill="#ef4444"/>
        <!-- Other (5%) -->
        <path d="M 80 80 L 75 140 A 60 60 0 0 1 80 20 Z" fill="#8b5cf6"/>
        
        <!-- Center circle -->
        <circle cx="80" cy="80" r="25" fill="white"/>
        <text x="80" y="78" font-family="Arial" font-size="10" text-anchor="middle" fill="#1f2937" font-weight="bold">ุฅุฌูุงูู</text>
        <text x="80" y="88" font-family="Arial" font-size="8" text-anchor="middle" fill="#6b7280">165 ููุธู</text>
      </g>
      
      <!-- Legend -->
      <g transform="translate(0, 170)">
        <rect x="0" y="0" width="8" height="8" fill="#22c55e"/>
        <text x="12" y="8" font-family="Arial" font-size="8" fill="#1f2937">ุญุถูุฑ (70%)</text>
        
        <rect x="70" y="0" width="8" height="8" fill="#f59e0b"/>
        <text x="82" y="8" font-family="Arial" font-size="8" fill="#1f2937">ุงุณุชุฑุงุญุฉ (15%)</text>
        
        <rect x="0" y="15" width="8" height="8" fill="#ef4444"/>
        <text x="12" y="23" font-family="Arial" font-size="8" fill="#1f2937">ุบูุงุจ (10%)</text>
        
        <rect x="70" y="15" width="8" height="8" fill="#8b5cf6"/>
        <text x="82" y="23" font-family="Arial" font-size="8" fill="#1f2937">ุฃุฎุฑู (5%)</text>
      </g>
      
      <!-- Chart title -->
      <text x="80" y="15" font-family="Arial" font-size="10" text-anchor="middle" fill="#1f2937" font-weight="bold">ุชูุฒูุน ุญุงูุงุช ุงูููุธููู</text>
    </g>
  </g>
  
  <!-- KPI Cards -->
  <g transform="translate(50, 370)">
    <!-- Productivity KPI -->
    <g>
      <rect x="0" y="0" width="100" height="60" fill="white" rx="8" stroke="#22c55e" stroke-width="2"/>
      <circle cx="20" cy="20" r="10" fill="#16a34a"/>
      <text x="20" y="25" font-family="Arial" font-size="12" fill="white" text-anchor="middle">๐</text>
      <text x="40" y="18" font-family="Arial" font-size="10" fill="#15803d" font-weight="bold">ุงูุฅูุชุงุฌูุฉ</text>
      <text x="40" y="32" font-family="Arial" font-size="16" fill="#16a34a" font-weight="bold">+25%</text>
      <text x="40" y="45" font-family="Arial" font-size="8" fill="#22c55e">ูุฐุง ุงูุดูุฑ</text>
    </g>
    
    <!-- Efficiency KPI -->
    <g transform="translate(120, 0)">
      <rect x="0" y="0" width="100" height="60" fill="white" rx="8" stroke="#3b82f6" stroke-width="2"/>
      <circle cx="20" cy="20" r="10" fill="#2563eb"/>
      <text x="20" y="25" font-family="Arial" font-size="12" fill="white" text-anchor="middle">โก</text>
      <text x="40" y="18" font-family="Arial" font-size="10" fill="#1d4ed8" font-weight="bold">ุงูููุงุกุฉ</text>
      <text x="40" y="32" font-family="Arial" font-size="16" fill="#2563eb" font-weight="bold">92%</text>
      <text x="40" y="45" font-family="Arial" font-size="8" fill="#3b82f6">ูุนุฏู ุนุงูู</text>
    </g>
    
    <!-- Cost savings KPI -->
    <g transform="translate(240, 0)">
      <rect x="0" y="0" width="100" height="60" fill="white" rx="8" stroke="#10b981" stroke-width="2"/>
      <circle cx="20" cy="20" r="10" fill="#059669"/>
      <text x="20" y="25" font-family="Arial" font-size="12" fill="white" text-anchor="middle">๐ฐ</text>
      <text x="40" y="18" font-family="Arial" font-size="10" fill="#047857" font-weight="bold">ุงูุชูููุฑ</text>
      <text x="40" y="32" font-family="Arial" font-size="14" fill="#059669" font-weight="bold">45K ๏ทผ</text>
      <text x="40" y="45" font-family="Arial" font-size="8" fill="#10b981">ูููุฑุงุช ุดูุฑูุฉ</text>
    </g>
    
    <!-- Satisfaction KPI -->
    <g transform="translate(360, 0)">
      <rect x="0" y="0" width="100" height="60" fill="white" rx="8" stroke="#f59e0b" stroke-width="2"/>
      <circle cx="20" cy="20" r="10" fill="#d97706"/>
      <text x="20" y="25" font-family="Arial" font-size="12" fill="white" text-anchor="middle">๐</text>
      <text x="40" y="18" font-family="Arial" font-size="10" fill="#92400e" font-weight="bold">ุงูุฑุถุง</text>
      <text x="40" y="32" font-family="Arial" font-size="16" fill="#d97706" font-weight="bold">4.8/5</text>
      <text x="40" y="45" font-family="Arial" font-size="8" fill="#f59e0b">ุชูููู ุงูููุธููู</text>
    </g>
  </g>
  
  <!-- Export options -->
  <g transform="translate(480, 370)">
    <!-- PDF export -->
    <g>
      <rect x="0" y="0" width="35" height="25" fill="#dc2626" rx="4"/>
      <text x="17" y="16" font-family="Arial" font-size="8" fill="white" text-anchor="middle" font-weight="bold">PDF</text>
    </g>
    
    <!-- Excel export -->
    <g transform="translate(0, 30)">
      <rect x="0" y="0" width="35" height="25" fill="#16a34a" rx="4"/>
      <text x="17" y="16" font-family="Arial" font-size="8" fill="white" text-anchor="middle" font-weight="bold">XLS</text>
    </g>
  </g>
  
  <!-- Trend arrows -->
  <g transform="translate(570, 100)" opacity="0.7">
    <g fill="#22c55e">
      <path d="M 0 10 L 5 0 L 10 10 L 7 10 L 7 20 L 3 20 L 3 10 Z"/>
      <animate attributeName="transform" values="translate(570, 100); translate(570, 90); translate(570, 100)" dur="2s" repeatCount="indefinite"/>
    </g>
    <text x="5" y="35" font-family="Arial" font-size="8" text-anchor="middle" fill="#16a34a">ููู</text>
  </g>
  
  <!-- Floating data points -->
  <g opacity="0.4">
    <circle cx="100" cy="30" r="3" fill="#3b82f6">
      <animate attributeName="cy" values="30;20;30" dur="3s" repeatCount="indefinite"/>
      <animate attributeName="opacity" values="0.4;0.8;0.4" dur="3s" repeatCount="indefinite"/>
    </circle>
    <circle cx="500" cy="200" r="2" fill="#10b981">
      <animate attributeName="cy" values="200;190;200" dur="4s" repeatCount="indefinite"/>
      <animate attributeName="opacity" values="0.4;0.8;0.4" dur="4s" repeatCount="indefinite"/>
    </circle>
    <circle cx="300" cy="380" r="2" fill="#f59e0b">
      <animate attributeName="cy" values="380;370;380" dur="5s" repeatCount="indefinite"/>
      <animate attributeName="opacity" values="0.4;0.8;0.4" dur="5s" repeatCount="indefinite"/>
    </circle>
  </g>
  
  <!-- Saudi business context -->
  <g transform="translate(20, 20)">
    <rect x="0" y="0" width="120" height="20" fill="rgba(16,185,129,0.1)" rx="4"/>
    <text x="60" y="14" font-family="Arial" font-size="10" text-anchor="middle" fill="#059669" font-weight="bold">๐ธ๐ฆ ุชูุงุฑูุฑ ูุชูุงููุฉ ูุน ุงูุณูู ุงูุณุนูุฏู</text>
  </g>
</svg>