<svg xmlns="http://www.w3.org/2000/svg" viewBox="0 0 700 500">
  <!-- Background -->
  <rect width="700" height="500" fill="linear-gradient(135deg, #ecfdf5 0%, #d1fae5 100%)"/>
  
  <!-- Main dashboard container -->
  <g transform="translate(100, 50)">
    <!-- Dashboard frame -->
    <rect x="0" y="0" width="500" height="400" fill="white" rx="15" stroke="#d1d5db" stroke-width="2"/>
    
    <!-- Header -->
    <rect x="0" y="0" width="500" height="60" fill="#065f46" rx="15"/>
    <rect x="0" y="30" width="500" height="30" fill="#065f46"/>
    <text x="250" y="38" font-family="Arial" font-size="18" fill="white" text-anchor="middle" font-weight="bold">ุฅุฏุงุฑุฉ ุงูุฑูุงุชุจ ูุงูุฃุฌูุฑ</text>
    
    <!-- Salary summary cards -->
    <g transform="translate(30, 90)">
      <!-- Total payroll -->
      <rect x="0" y="0" width="140" height="80" fill="#f0fdf4" rx="10" stroke="#22c55e" stroke-width="2"/>
      <circle cx="25" cy="25" r="12" fill="#16a34a"/>
      <text x="25" y="30" font-family="Arial" font-size="16" fill="white" text-anchor="middle" font-weight="bold">๏ทผ</text>
      <text x="55" y="20" font-family="Arial" font-size="14" fill="#15803d" font-weight="bold">ุฅุฌูุงูู ุงูุฑูุงุชุจ</text>
      <text x="55" y="35" font-family="Arial" font-size="18" fill="#16a34a" font-weight="bold">450,000 ๏ทผ</text>
      <text x="55" y="50" font-family="Arial" font-size="10" fill="#22c55e">ูุฐุง ุงูุดูุฑ</text>
      <text x="55" y="65" font-family="Arial" font-size="8" fill="#86efac">+5.2% ูู ุงูุดูุฑ ุงููุงุถู</text>
    </g>
    
    <g transform="translate(200, 90)">
      <!-- Employees paid -->
      <rect x="0" y="0" width="140" height="80" fill="#eff6ff" rx="10" stroke="#3b82f6" stroke-width="2"/>
      <circle cx="25" cy="25" r="12" fill="#2563eb"/>
      <text x="25" y="30" font-family="Arial" font-size="14" fill="white" text-anchor="middle" font-weight="bold">๐ฅ</text>
      <text x="55" y="20" font-family="Arial" font-size="14" fill="#1d4ed8" font-weight="bold">ุงูููุธููู ุงููุฏููุนูู</text>
      <text x="55" y="35" font-family="Arial" font-size="18" fill="#2563eb" font-weight="bold">142 ููุธู</text>
      <text x="55" y="50" font-family="Arial" font-size="10" fill="#3b82f6">ุชู ุงูุฏูุน</text>
      <text x="55" y="65" font-family="Arial" font-size="8" fill="#93c5fd">ูุนุฏู ุงูุฏูุน 98.5%</text>
    </g>
    
    <g transform="translate(370, 90)">
      <!-- Pending payments -->
      <rect x="0" y="0" width="100" height="80" fill="#fef3c7" rx="10" stroke="#f59e0b" stroke-width="2"/>
      <circle cx="20" cy="25" r="12" fill="#d97706"/>
      <text x="20" y="30" font-family="Arial" font-size="14" fill="white" text-anchor="middle" font-weight="bold">โณ</text>
      <text x="40" y="20" font-family="Arial" font-size="12" fill="#92400e" font-weight="bold">ููุฏ ุงููุนุงูุฌุฉ</text>
      <text x="40" y="35" font-family="Arial" font-size="16" fill="#d97706" font-weight="bold">3 ููุธู</text>
      <text x="40" y="50" font-family="Arial" font-size="8" fill="#f59e0b">ูุชุทูุจ ูุฑุงุฌุนุฉ</text>
      <text x="40" y="65" font-family="Arial" font-size="8" fill="#fbbf24">12,500 ๏ทผ</text>
    </g>
    
    <!-- Payment method section -->
    <g transform="translate(30, 200)">
      <text x="0" y="0" font-family="Arial" font-size="16" fill="#374151" font-weight="bold">ุทุฑู ุงูุฏูุน</text>
      
      <!-- Bank transfer -->
      <g transform="translate(0, 20)">
        <rect x="0" y="0" width="200" height="40" fill="#f8fafc" rx="8" stroke="#e2e8f0"/>
        <rect x="10" y="10" width="30" height="20" fill="#1e40af" rx="4"/>
        <text x="25" y="23" font-family="Arial" font-size="12" fill="white" text-anchor="middle" font-weight="bold">๐ฆ</text>
        <text x="50" y="18" font-family="Arial" font-size="12" fill="#1f2937" font-weight="bold">ุชุญููู ุจููู (SARIE)</text>
        <text x="50" y="32" font-family="Arial" font-size="10" fill="#6b7280">139 ููุธู - 437,500 ๏ทผ</text>
        
        <!-- Progress bar -->
        <rect x="220" y="12" width="100" height="6" fill="#e5e7eb" rx="3"/>
        <rect x="220" y="12" width="95" height="6" fill="#10b981" rx="3"/>
        <text x="330" y="25" font-family="Arial" font-size="10" fill="#059669">95%</text>
      </g>
      
      <!-- Cash -->
      <g transform="translate(0, 70)">
        <rect x="0" y="0" width="200" height="40" fill="#f8fafc" rx="8" stroke="#e2e8f0"/>
        <rect x="10" y="10" width="30" height="20" fill="#16a34a" rx="4"/>
        <text x="25" y="23" font-family="Arial" font-size="12" fill="white" text-anchor="middle" font-weight="bold">๐ฐ</text>
        <text x="50" y="18" font-family="Arial" font-size="12" fill="#1f2937" font-weight="bold">ููุฏู</text>
        <text x="50" y="32" font-family="Arial" font-size="10" fill="#6b7280">3 ููุธู - 12,500 ๏ทผ</text>
        
        <!-- Progress bar -->
        <rect x="220" y="12" width="100" height="6" fill="#e5e7eb" rx="3"/>
        <rect x="220" y="12" width="5" height="6" fill="#f59e0b" rx="3"/>
        <text x="330" y="25" font-family="Arial" font-size="10" fill="#d97706">5%</text>
      </g>
    </g>
    
    <!-- Salary breakdown -->
    <g transform="translate(30, 320)">
      <text x="0" y="0" font-family="Arial" font-size="16" fill="#374151" font-weight="bold">ุชูุตูู ุงูุฑูุงุชุจ</text>
      
      <g transform="translate(0, 25)">
        <!-- Basic salary -->
        <rect x="0" y="0" width="80" height="15" fill="#dbeafe" rx="3"/>
        <text x="5" y="12" font-family="Arial" font-size="10" fill="#1e40af">ุงูุฑุงุชุจ ุงูุฃุณุงุณู</text>
        <text x="90" y="12" font-family="Arial" font-size="10" fill="#1f2937" font-weight="bold">320,000 ๏ทผ</text>
        
        <!-- Allowances -->
        <g transform="translate(160, 0)">
          <rect x="0" y="0" width="60" height="15" fill="#dcfce7" rx="3"/>
          <text x="5" y="12" font-family="Arial" font-size="10" fill="#16a34a">ุงูุจุฏูุงุช</text>
          <text x="70" y="12" font-family="Arial" font-size="10" fill="#1f2937" font-weight="bold">85,000 ๏ทผ</text>
        </g>
        
        <!-- Overtime -->
        <g transform="translate(280, 0)">
          <rect x="0" y="0" width="70" height="15" fill="#fef3c7" rx="3"/>
          <text x="5" y="12" font-family="Arial" font-size="10" fill="#d97706">ุงูุณุงุนุงุช ุงูุฅุถุงููุฉ</text>
          <text x="80" y="12" font-family="Arial" font-size="10" fill="#1f2937" font-weight="bold">25,000 ๏ทผ</text>
        </g>
        
        <!-- Deductions -->
        <g transform="translate(400, 0)">
          <rect x="0" y="0" width="50" height="15" fill="#fee2e2" rx="3"/>
          <text x="5" y="12" font-family="Arial" font-size="10" fill="#dc2626">ุงูุฎุตููุงุช</text>
          <text x="60" y="12" font-family="Arial" font-size="10" fill="#1f2937" font-weight="bold">-15,000 ๏ทผ</text>
        </g>
      </g>
    </g>
  </g>
  
  <!-- Security and compliance badges -->
  <g transform="translate(50, 400)">
    <!-- Security badge -->
    <g>
      <rect x="0" y="0" width="100" height="30" fill="rgba(34,197,94,0.1)" rx="6" stroke="#22c55e"/>
      <circle cx="15" cy="15" r="8" fill="#16a34a"/>
      <text x="15" y="19" font-family="Arial" font-size="8" fill="white" text-anchor="middle" font-weight="bold">๐</text>
      <text x="30" y="12" font-family="Arial" font-size="10" fill="#15803d" font-weight="bold">ุขูุงู 256-bit</text>
      <text x="30" y="22" font-family="Arial" font-size="8" fill="#22c55e">ูุนุชูุฏ ูู SAMA</text>
    </g>
    
    <!-- Compliance badge -->
    <g transform="translate(120, 0)">
      <rect x="0" y="0" width="100" height="30" fill="rgba(59,130,246,0.1)" rx="6" stroke="#3b82f6"/>
      <circle cx="15" cy="15" r="8" fill="#2563eb"/>
      <text x="15" y="19" font-family="Arial" font-size="8" fill="white" text-anchor="middle" font-weight="bold">โ</text>
      <text x="30" y="12" font-family="Arial" font-size="10" fill="#1d4ed8" font-weight="bold">ูุชูุงูู ูุน ZATCA</text>
      <text x="30" y="22" font-family="Arial" font-size="8" fill="#3b82f6">ุถุฑุงุฆุจ ุงูุณุนูุฏูุฉ</text>
    </g>
    
    <!-- Backup badge -->
    <g transform="translate(240, 0)">
      <rect x="0" y="0" width="100" height="30" fill="rgba(16,185,129,0.1)" rx="6" stroke="#10b981"/>
      <circle cx="15" cy="15" r="8" fill="#059669"/>
      <text x="15" y="19" font-family="Arial" font-size="8" fill="white" text-anchor="middle" font-weight="bold">โ</text>
      <text x="30" y="12" font-family="Arial" font-size="10" fill="#047857" font-weight="bold">ูุณุฎ ุงุญุชูุงุทู</text>
      <text x="30" y="22" font-family="Arial" font-size="8" fill="#10b981">ูู 6 ุณุงุนุงุช</text>
    </g>
  </g>
  
  <!-- Floating money icons -->
  <g transform="translate(550, 100)" opacity="0.6">
    <g>
      <circle cx="0" cy="0" r="20" fill="rgba(34,197,94,0.2)"/>
      <text x="0" y="5" font-family="Arial" font-size="18" text-anchor="middle">๏ทผ</text>
      <animate attributeName="transform" values="translate(550, 100) rotate(0); translate(550, 100) rotate(360)" dur="20s" repeatCount="indefinite"/>
    </g>
  </g>
  
  <g transform="translate(580, 250)" opacity="0.4">
    <g>
      <circle cx="0" cy="0" r="15" fill="rgba(251,191,36,0.2)"/>
      <text x="0" y="4" font-family="Arial" font-size="12" text-anchor="middle">๐ณ</text>
      <animate attributeName="transform" values="translate(580, 250) rotate(0); translate(580, 250) rotate(-360)" dur="15s" repeatCount="indefinite"/>
    </g>
  </g>
  
  <!-- Animated floating elements -->
  <g opacity="0.3">
    <circle cx="50" cy="200" r="3" fill="#22c55e">
      <animate attributeName="cy" values="200;180;200" dur="4s" repeatCount="indefinite"/>
      <animate attributeName="opacity" values="0.3;0.7;0.3" dur="4s" repeatCount="indefinite"/>
    </circle>
    <circle cx="650" cy="150" r="2" fill="#3b82f6">
      <animate attributeName="cy" values="150;130;150" dur="3s" repeatCount="indefinite"/>
      <animate attributeName="opacity" values="0.3;0.7;0.3" dur="3s" repeatCount="indefinite"/>
    </circle>
  </g>
  
  <!-- Saudi Riyal symbol -->
  <g transform="translate(30, 30)">
    <rect x="0" y="0" width="60" height="25" fill="rgba(16,185,129,0.1)" rx="4"/>
    <text x="30" y="17" font-family="Arial" font-size="14" text-anchor="middle" fill="#059669" font-weight="bold">๐ธ๐ฆ ๏ทผ SAR</text>
  </g>
</svg>